<svg version="1.1" xmlns="http://www.w3.org/2000/svg" xmlns:xlink="http://www.w3.org/1999/xlink" width="32.78549" height="30.81868" viewBox="0,0,32.78549,30.81868"><g transform="translate(-174.93979,-167.0371)"><g data-paper-data="{&quot;isPaintingLayer&quot;:true}" fill="#ff0000" fill-rule="nonzero" stroke="none" stroke-width="0.5" stroke-linecap="butt" stroke-linejoin="miter" stroke-miterlimit="10" stroke-dasharray="" stroke-dashoffset="0" style="mix-blend-mode: normal"><path d="M182.42858,183.99284c-0.70649,0 -0.70649,-0.70649 -0.70649,-0.70649c0,-4.89832 0,-10.64443 0,-15.54276c0,0 0,-0.70649 0.70649,-0.70649c0.70649,0 0.70649,0.70649 0.70649,0.70649c0,4.89832 0,9.79665 0,14.69497v0.84779c0,0 0,0.70649 -0.70649,0.70649z"/><path d="M195.14538,183.99284c-0.70649,0 -0.70649,-0.70649 -0.70649,-0.70649v-0.56519c0,-1.57905 -0.24879,-3.36508 0.00912,-4.91729c0.09863,-0.59362 0.46243,-1.12112 0.56834,-1.71349c0.05839,-0.32657 -0.02608,-0.67186 0.05413,-0.99377c0.118,-0.47356 0.39296,-0.89611 0.53324,-1.36355c0.14894,-0.4963 0.12743,-1.04251 0.33174,-1.5187c0.09648,-0.22486 0.46662,-0.26737 0.53538,-0.50219c0.10714,-0.36593 -0.04476,-0.76143 -0.05378,-1.14262c-0.01783,-0.75338 0,-1.50718 0,-2.26076c0,0 0,-0.70649 0.70649,-0.70649c0.70649,0 0.70649,0.70649 0.70649,0.70649c0,1.1478 0.24985,2.86231 -0.05378,3.9441c-0.07794,0.27769 -0.48003,0.36368 -0.59501,0.62819c-0.16903,0.38884 -0.10431,0.84518 -0.22247,1.25237c-0.12651,0.43598 -0.39771,0.82328 -0.50766,1.26372c-0.07722,0.30934 0.01203,0.64193 -0.04633,0.95537c-0.10795,0.5798 -0.46471,1.09598 -0.56205,1.67765c-0.24595,1.46982 0.00912,3.19177 0.00912,4.69096v0.56519c0,0 0,0.70649 -0.70649,0.70649z"/><path d="M207.33034,194.24087c0.6319,0.31595 0.31595,0.94785 0.31595,0.94785l-0.49848,0.99696c-0.38355,0.54841 -0.51536,1.43477 -1.15064,1.64522c-0.47861,0.15855 -0.91061,-0.47797 -1.25149,-0.84947c-0.28482,-0.3104 -0.33393,-0.77827 -0.56519,-1.13038c-0.27182,-0.41387 -0.70669,-0.69378 -1.05681,-1.04391c-0.55824,-0.55824 -1.21509,-1.46149 -1.86355,-1.88533c-0.28978,-0.18941 -0.66481,-0.20486 -0.97388,-0.36082c-0.46438,-0.23432 -0.9152,-0.50036 -1.33672,-0.80511c-0.18837,-0.13619 -0.27043,-0.40364 -0.4785,-0.50726c-0.29957,-0.14921 -0.65713,-0.13032 -0.97982,-0.21907c-0.90337,-0.24844 -1.63838,-0.55259 -2.57585,-0.67317c-0.9535,-0.32234 -2.23885,-0.71602 -3.28141,-0.44794c-0.7076,0.18195 -1.30649,0.69055 -2.01854,0.85424c-0.41828,0.09615 -0.88135,0.0208 -1.27224,0.19802c-0.40786,0.18491 -0.65264,0.62582 -1.04012,0.85034c-0.41746,0.24189 -0.90533,0.33581 -1.346,0.53226c-1.11202,0.49572 -2.1437,1.28862 -3.24267,1.76259c-0.35663,0.15381 -0.77302,0.13048 -1.13038,0.2826c-0.68635,0.29215 -1.27721,0.77351 -1.94147,1.11287c-0.48443,0.24749 -1.50497,0.78625 -1.86589,1.05866c-0.36818,0.27789 -0.59445,0.74805 -1.01221,0.94364c-0.33794,0.15822 -0.74543,0.03585 -1.11815,0.05378c0,0 -0.70649,0 -0.70649,-0.70649c0,-0.70649 0.70649,-0.70649 0.70649,-0.70649c0.19247,0.01792 0.40831,0.14742 0.57742,0.05378c0.2963,-0.16407 0.41571,-0.54441 0.68337,-0.75193c0.96332,-0.7469 2.14105,-1.15289 3.18873,-1.74976c0.31732,-0.18078 0.58123,-0.4556 0.91658,-0.60023c0.35663,-0.15381 0.77302,-0.13048 1.13038,-0.2826c0.6886,-0.29311 1.27873,-0.78135 1.94803,-1.11619c0.81722,-0.40884 1.71584,-0.65215 2.50637,-1.11049c0.42755,-0.24789 0.7153,-0.71357 1.16658,-0.91502c0.46835,-0.20907 1.01336,-0.16435 1.51281,-0.28105c0.71614,-0.16734 1.31836,-0.68309 2.03277,-0.85768c1.27706,-0.31208 2.73127,0.05436 3.92106,0.44571c0.95293,0.12256 1.74114,0.42397 2.65589,0.69395c0.42421,0.1252 0.88558,0.14786 1.28094,0.34613c0.64184,0.32186 1.09496,0.95332 1.73841,1.27195c0.36134,0.17893 0.78858,0.22285 1.12441,0.44601c0.37362,0.24826 0.64294,0.62572 0.9624,0.94063c0.73459,0.72412 1.75834,1.49467 2.33434,2.34724c0.19493,0.28853 0.36737,0.59782 0.49272,0.92335c0.02238,-0.13143 0.04763,-0.2627 0.06452,-0.39444l0.49848,-0.99696c0,0 0.31595,-0.6319 0.94785,-0.31595z"/></g></g></svg>