<svg version="1.1" xmlns="http://www.w3.org/2000/svg" xmlns:xlink="http://www.w3.org/1999/xlink" width="34.95357" height="32.85671" viewBox="0,0,34.95357,32.85671"><g transform="translate(-164.34351,-164.99909)"><g data-paper-data="{&quot;isPaintingLayer&quot;:true}" fill="#ff0000" fill-rule="nonzero" stroke="none" stroke-width="0.5" stroke-linecap="butt" stroke-linejoin="miter" stroke-miterlimit="10" stroke-dasharray="" stroke-dashoffset="0" style="mix-blend-mode: normal"><path d="M172.32752,183.07609c-0.75321,0 -0.75321,-0.75321 -0.75321,-0.75321c0,-5.22225 0,-11.34835 0,-16.57059c0,0 0,-0.75321 0.75321,-0.75321c0.75321,0 0.75321,0.75321 0.75321,0.75321c0,5.22225 0,10.44449 0,15.66674v0.90385c0,0 0,0.75321 -0.75321,0.75321z"/><path d="M185.88527,183.07609c-0.75321,0 -0.75321,-0.75321 -0.75321,-0.75321v-0.60257c0,-1.68347 -0.26524,-3.58761 0.00973,-5.24247c0.10516,-0.63288 0.49301,-1.19526 0.60592,-1.8268c0.06225,-0.34817 -0.0278,-0.71629 0.05771,-1.05948c0.1258,-0.50487 0.41895,-0.95537 0.5685,-1.45372c0.15879,-0.52912 0.13585,-1.11145 0.35368,-1.61914c0.10286,-0.23972 0.49748,-0.28504 0.57078,-0.5354c0.11423,-0.39013 -0.04772,-0.81178 -0.05734,-1.21817c-0.019,-0.8032 0,-1.60684 0,-2.41027c0,0 0,-0.75321 0.75321,-0.75321c0.75321,0 0.75321,0.75321 0.75321,0.75321c0,1.2237 0.26638,3.05159 -0.05734,4.20493c-0.08309,0.29605 -0.51177,0.38774 -0.63436,0.66974c-0.18021,0.41456 -0.1112,0.90107 -0.23718,1.33519c-0.13488,0.46481 -0.42401,0.87772 -0.54123,1.34729c-0.08233,0.3298 0.01282,0.68438 -0.04939,1.01854c-0.11509,0.61815 -0.49544,1.16845 -0.59921,1.7886c-0.26221,1.56702 0.00973,3.40284 0.00973,5.00116v0.60257c0,0 0,0.75321 -0.75321,0.75321z"/><path d="M198.87602,194.00182c0.67369,0.33684 0.33684,1.01054 0.33684,1.01054l-0.53144,1.06289c-0.40891,0.58468 -0.54945,1.52966 -1.22673,1.75402c-0.51026,0.16903 -0.97083,-0.50958 -1.33425,-0.90564c-0.30365,-0.33092 -0.35602,-0.82973 -0.60257,-1.20513c-0.2898,-0.44124 -0.75342,-0.73966 -1.1267,-1.11294c-0.59516,-0.59516 -1.29545,-1.55813 -1.98679,-2.01001c-0.30894,-0.20193 -0.70877,-0.21841 -1.03828,-0.38468c-0.49509,-0.24982 -0.97572,-0.53344 -1.42511,-0.85835c-0.20083,-0.1452 -0.28831,-0.43032 -0.51014,-0.5408c-0.31938,-0.15907 -0.70059,-0.13894 -1.04462,-0.23355c-0.96312,-0.26487 -1.74673,-0.58913 -2.74619,-0.71768c-1.01655,-0.34365 -2.38691,-0.76337 -3.4984,-0.47756c-0.75439,0.19398 -1.39289,0.73621 -2.15202,0.91073c-0.44594,0.10252 -0.93964,0.02217 -1.35638,0.21111c-0.43484,0.19714 -0.6958,0.6672 -1.1089,0.90657c-0.44506,0.25789 -0.9652,0.35802 -1.435,0.56745c-1.18556,0.5285 -2.28546,1.37384 -3.4571,1.87915c-0.38022,0.16398 -0.82414,0.13911 -1.20513,0.30128c-0.73174,0.31147 -1.36166,0.82466 -2.06987,1.18646c-0.51647,0.26385 -1.6045,0.83824 -1.98928,1.12867c-0.39253,0.29627 -0.63376,0.79752 -1.07914,1.00605c-0.36029,0.16869 -0.79473,0.03822 -1.19209,0.05734c0,0 -0.75321,0 -0.75321,-0.75321c0,-0.75321 0.75321,-0.75321 0.75321,-0.75321c0.2052,0.01911 0.43531,0.15717 0.61561,0.05734c0.31589,-0.17492 0.4432,-0.58041 0.72856,-0.80166c1.02703,-0.79629 2.28263,-1.22912 3.39959,-1.86547c0.33831,-0.19274 0.61967,-0.48573 0.97719,-0.63993c0.38022,-0.16398 0.82414,-0.13911 1.20513,-0.30128c0.73413,-0.31249 1.36329,-0.83303 2.07685,-1.19c0.87126,-0.43587 1.82931,-0.69528 2.67211,-1.18393c0.45582,-0.26428 0.7626,-0.76076 1.24372,-0.97554c0.49932,-0.2229 1.08038,-0.17522 1.61285,-0.29964c0.7635,-0.17841 1.40554,-0.72826 2.16719,-0.91439c1.36151,-0.33272 2.91188,0.05796 4.18035,0.47518c1.01594,0.13067 1.85628,0.45201 2.83152,0.73984c0.45226,0.13348 0.94414,0.15764 1.36565,0.36901c0.68428,0.34314 1.16737,1.01636 1.85337,1.35606c0.38523,0.19076 0.84073,0.23759 1.19877,0.4755c0.39833,0.26468 0.68546,0.6671 1.02605,1.00283c0.78317,0.77201 1.87462,1.59351 2.4887,2.50246c0.20782,0.30761 0.39166,0.63735 0.52531,0.98441c0.02386,-0.14013 0.05078,-0.28007 0.06879,-0.42053l0.53144,-1.06289c0,0 0.33684,-0.67369 1.01054,-0.33684z"/></g></g></svg>