<svg version="1.1" xmlns="http://www.w3.org/2000/svg" xmlns:xlink="http://www.w3.org/1999/xlink" width="38.73567" height="36.41191" viewBox="0,0,38.73567,36.41191"><g transform="translate(-165.15861,-161.44387)"><g data-paper-data="{&quot;isPaintingLayer&quot;:true}" fill="#ff0000" fill-rule="nonzero" stroke="none" stroke-width="0.5" stroke-linecap="butt" stroke-linejoin="miter" stroke-miterlimit="10" stroke-dasharray="" stroke-dashoffset="0" style="mix-blend-mode: normal"><path d="M174.00652,181.47687c-0.83471,0 -0.83471,-0.83471 -0.83471,-0.83471c0,-5.78731 0,-12.57627 0,-18.36359c0,0 0,-0.83471 0.83471,-0.83471c0.83471,0 0.83471,0.83471 0.83471,0.83471c0,5.78731 0,11.57462 0,17.36194v1.00165c0,0 0,0.83471 -0.83471,0.83471z"/><path d="M189.03127,181.47687c-0.83471,0 -0.83471,-0.83471 -0.83471,-0.83471v-0.66777c0,-1.86563 -0.29394,-3.97581 0.01078,-5.80972c0.11654,-0.70136 0.54635,-1.32459 0.67148,-2.02447c0.06898,-0.38584 -0.03081,-0.7938 0.06396,-1.17413c0.13941,-0.5595 0.46428,-1.05875 0.63002,-1.61101c0.17598,-0.58637 0.15055,-1.23172 0.39195,-1.79433c0.11399,-0.26566 0.55131,-0.31589 0.63254,-0.59333c0.12659,-0.43234 -0.05289,-0.89962 -0.06354,-1.34999c-0.02106,-0.89011 0,-1.78071 0,-2.67107c0,0 0,-0.83471 0.83471,-0.83471c0.83471,0 0.83471,0.83471 0.83471,0.83471c0,1.35611 0.2952,3.38178 -0.06354,4.65991c-0.09208,0.32808 -0.56715,0.42969 -0.703,0.7422c-0.1997,0.45941 -0.12324,0.99857 -0.26285,1.47966c-0.14947,0.5151 -0.46988,0.97269 -0.59979,1.49307c-0.09124,0.36548 0.01421,0.75843 -0.05473,1.12876c-0.12755,0.68503 -0.54905,1.29489 -0.66405,1.98213c-0.29059,1.73658 0.01078,3.77104 0.01078,5.54231v0.66777c0,0 0,0.83471 -0.83471,0.83471z"/><path d="M203.42767,193.5848c0.74659,0.37329 0.37329,1.11988 0.37329,1.11988l-0.58895,1.17789c-0.45315,0.64794 -0.6089,1.69517 -1.35946,1.94381c-0.56547,0.18732 -1.07588,-0.56472 -1.47862,-1.00364c-0.33651,-0.36673 -0.39453,-0.91951 -0.66777,-1.33554c-0.32115,-0.48899 -0.83494,-0.8197 -1.24861,-1.23337c-0.65956,-0.65956 -1.43562,-1.72673 -2.20177,-2.2275c-0.34238,-0.22378 -0.78547,-0.24204 -1.15063,-0.4263c-0.54866,-0.27685 -1.08129,-0.59116 -1.57932,-0.95123c-0.22255,-0.1609 -0.31951,-0.47689 -0.56534,-0.59932c-0.35394,-0.17628 -0.77639,-0.15397 -1.15765,-0.25883c-1.06733,-0.29353 -1.93573,-0.65288 -3.04334,-0.79534c-1.12655,-0.38084 -2.64518,-0.84597 -3.87694,-0.52923c-0.83602,0.21497 -1.5436,0.81587 -2.38488,1.00927c-0.49419,0.11361 -1.04131,0.02458 -1.50314,0.23396c-0.48189,0.21847 -0.77109,0.7394 -1.22889,1.00466c-0.49322,0.28579 -1.06963,0.39676 -1.59028,0.62886c-1.31383,0.58568 -2.53275,1.52249 -3.83117,2.08248c-0.42136,0.18173 -0.91332,0.15416 -1.33554,0.33389c-0.81091,0.34517 -1.509,0.91389 -2.29383,1.31484c-0.57236,0.2924 -1.7781,0.92895 -2.20453,1.25079c-0.43501,0.32832 -0.70233,0.88381 -1.19591,1.1149c-0.39927,0.18694 -0.88072,0.04236 -1.32108,0.06354c0,0 -0.83471,0 -0.83471,-0.83471c0,-0.83471 0.83471,-0.83471 0.83471,-0.83471c0.22741,0.02118 0.48242,0.17418 0.68222,0.06354c0.35007,-0.19385 0.49115,-0.64321 0.80739,-0.8884c1.13815,-0.88246 2.52962,-1.36212 3.76744,-2.06732c0.37491,-0.2136 0.68672,-0.53829 1.08293,-0.70917c0.42136,-0.18173 0.91332,-0.15416 1.33554,-0.33389c0.81357,-0.34631 1.51081,-0.92316 2.30157,-1.31876c0.96554,-0.48304 2.02724,-0.7705 2.96124,-1.31203c0.50514,-0.29287 0.84511,-0.84307 1.3783,-1.08109c0.55335,-0.24702 1.19728,-0.19418 1.78736,-0.33206c0.84612,-0.19771 1.55762,-0.80706 2.40169,-1.01333c1.50883,-0.36872 3.22696,0.06423 4.63269,0.5266c1.12587,0.14481 2.05713,0.50092 3.1379,0.8199c0.50119,0.14792 1.0463,0.1747 1.51342,0.40894c0.75832,0.38027 1.29368,1.12634 2.05391,1.50279c0.42691,0.21141 0.9317,0.2633 1.32848,0.52695c0.44143,0.29331 0.75963,0.73928 1.13707,1.11134c0.86791,0.85554 2.07746,1.76594 2.75799,2.77323c0.23031,0.34089 0.43404,0.70632 0.58215,1.09093c0.02644,-0.15529 0.05628,-0.31037 0.07624,-0.46603l0.58895,-1.17789c0,0 0.37329,-0.74659 1.11988,-0.37329z"/></g></g></svg>