<svg version="1.1" xmlns="http://www.w3.org/2000/svg" xmlns:xlink="http://www.w3.org/1999/xlink" width="35.0156" height="32.915" viewBox="0,0,35.0156,32.915"><g transform="translate(-175.99997,-164.94078)"><g data-paper-data="{&quot;isPaintingLayer&quot;:true}" fill="#ff0000" fill-rule="nonzero" stroke="none" stroke-width="0.5" stroke-linecap="butt" stroke-linejoin="miter" stroke-miterlimit="10" stroke-dasharray="" stroke-dashoffset="0" style="mix-blend-mode: normal"><path d="M183.99816,183.04986c-0.75455,0 -0.75455,-0.75455 -0.75455,-0.75455c0,-5.23151 0,-11.36848 0,-16.59999c0,0 0,-0.75455 0.75455,-0.75455c0.75455,0 0.75455,0.75455 0.75455,0.75455c0,5.23151 0,10.46302 0,15.69453v0.90546c0,0 0,0.75455 -0.75455,0.75455z"/><path d="M197.57997,183.04986c-0.75455,0 -0.75455,-0.75455 -0.75455,-0.75455v-0.60364c0,-1.68646 -0.26571,-3.59398 0.00974,-5.25177c0.10534,-0.634 0.49388,-1.19738 0.607,-1.83004c0.06236,-0.34879 -0.02785,-0.71756 0.05781,-1.06136c0.12602,-0.50577 0.41969,-0.95707 0.56951,-1.4563c0.15908,-0.53006 0.13609,-1.11343 0.35431,-1.622c0.10304,-0.24015 0.49836,-0.28555 0.57179,-0.53635c0.11443,-0.39082 -0.0478,-0.81322 -0.05744,-1.22034c-0.01903,-0.80462 0,-1.6097 0,-2.41454c0,0 0,-0.75455 0.75455,-0.75455c0.75455,0 0.75455,0.75455 0.75455,0.75455c0,1.22587 0.26685,3.057 -0.05744,4.21239c-0.08324,0.29658 -0.51268,0.38842 -0.63548,0.67092c-0.18053,0.41529 -0.11141,0.90267 -0.2376,1.33756c-0.13512,0.46563 -0.42476,0.87928 -0.54219,1.34968c-0.08248,0.33038 0.01285,0.68559 -0.04948,1.02035c-0.11529,0.61924 -0.49632,1.17052 -0.60027,1.79177c-0.26268,1.5698 0.00974,3.40888 0.00974,5.01004v0.60364c0,0 0,0.75455 -0.75455,0.75455z"/><path d="M210.59377,193.99497c0.67488,0.33744 0.33744,1.01233 0.33744,1.01233l-0.53239,1.06477c-0.40964,0.58571 -0.55042,1.53237 -1.22891,1.75713c-0.51116,0.16933 -0.97256,-0.51049 -1.33662,-0.90725c-0.30419,-0.33151 -0.35665,-0.83121 -0.60364,-1.20727c-0.29031,-0.44202 -0.75475,-0.74098 -1.1287,-1.11492c-0.59622,-0.59622 -1.29775,-1.5609 -1.99032,-2.01357c-0.30949,-0.20229 -0.71003,-0.21879 -1.04012,-0.38536c-0.49597,-0.25026 -0.97745,-0.53439 -1.42764,-0.85988c-0.20118,-0.14545 -0.28882,-0.43109 -0.51104,-0.54176c-0.31995,-0.15935 -0.70183,-0.13919 -1.04647,-0.23397c-0.96482,-0.26535 -1.74983,-0.59018 -2.75107,-0.71895c-1.01835,-0.34426 -2.39114,-0.76472 -3.50461,-0.47841c-0.75573,0.19432 -1.39536,0.73752 -2.15584,0.91234c-0.44673,0.10269 -0.9413,0.02221 -1.35878,0.21149c-0.43561,0.19749 -0.69704,0.66839 -1.11087,0.90818c-0.44585,0.25834 -0.96691,0.35866 -1.43755,0.56846c-1.18766,0.52944 -2.28951,1.37627 -3.46324,1.88249c-0.3809,0.16428 -0.8256,0.13936 -1.20727,0.30182c-0.73303,0.31202 -1.36408,0.82612 -2.07354,1.18857c-0.51739,0.26432 -1.60734,0.83973 -1.99281,1.13067c-0.39323,0.29679 -0.63488,0.79893 -1.08106,1.00783c-0.36093,0.16898 -0.79614,0.03829 -1.19421,0.05744c0,0 -0.75455,0 -0.75455,-0.75455c0,-0.75455 0.75455,-0.75455 0.75455,-0.75455c0.20557,0.01914 0.43609,0.15745 0.6167,0.05744c0.31645,-0.17523 0.44399,-0.58144 0.72985,-0.80308c1.02885,-0.79771 2.28668,-1.23131 3.40563,-1.86879c0.33891,-0.19308 0.62077,-0.48659 0.97893,-0.64106c0.3809,-0.16428 0.8256,-0.13936 1.20727,-0.30182c0.73543,-0.31304 1.36571,-0.8345 2.08054,-1.19211c0.87281,-0.43665 1.83255,-0.69651 2.67685,-1.18603c0.45662,-0.26475 0.76395,-0.76211 1.24593,-0.97726c0.50021,-0.22329 1.08229,-0.17553 1.61571,-0.30017c0.76486,-0.17872 1.40803,-0.72955 2.17104,-0.91601c1.36393,-0.33331 2.91705,0.05806 4.18777,0.47602c1.01775,0.1309 1.85957,0.45281 2.83654,0.74116c0.45306,0.13372 0.94581,0.15792 1.36807,0.36967c0.6855,0.34375 1.16944,1.01817 1.85665,1.35847c0.38591,0.1911 0.84222,0.23802 1.20089,0.47634c0.39903,0.26514 0.68667,0.66828 1.02787,1.00461c0.78456,0.77338 1.87794,1.59634 2.49312,2.5069c0.20819,0.30815 0.39236,0.63848 0.52624,0.98616c0.0239,-0.14037 0.05087,-0.28056 0.06892,-0.42128l0.53239,-1.06477c0,0 0.33744,-0.67488 1.01233,-0.33744z"/></g></g></svg>