<svg version="1.1" xmlns="http://www.w3.org/2000/svg" xmlns:xlink="http://www.w3.org/1999/xlink" width="35.21587" height="50.36069" viewBox="0,0,35.21587,50.36069"><g transform="translate(-237.68184,-178.43931)"><g data-paper-data="{&quot;isPaintingLayer&quot;:true}" fill-rule="nonzero" stroke="none" stroke-width="0.5" stroke-linecap="butt" stroke-linejoin="miter" stroke-miterlimit="10" stroke-dasharray="" stroke-dashoffset="0" style="mix-blend-mode: normal"><path d="" fill="#20ff00"/><path d="" fill="#20ff00"/><path d="" fill="#20ff00"/><path d="" fill="#20ff00"/><path d="M269.0173,204.26295c0.00174,-0.05682 0.00623,-0.11405 0.01235,-0.17152c0.21223,0.39707 0.42865,0.79277 0.58693,1.20744c-0.20842,-0.06685 -0.41642,-0.13479 -0.62395,-0.20402c0.01273,-0.27646 0.02111,-0.55365 0.02466,-0.8319z" fill="#20ff00"/><path d="M239.79661,184.57334c-0.52566,-0.52566 0,-1.05132 0,-1.05132l0.59472,-0.59472c0.84788,-0.84788 1.48748,-1.64646 2.73373,-1.98199c0.90991,-0.24498 1.86863,0.03427 2.75355,-0.50357c0.27216,-0.16542 0.39988,-0.54558 0.70105,-0.64915c0.39677,-0.13644 0.8553,0.09143 1.25849,-0.02469c0.34342,-0.09891 0.54844,-0.49653 0.89207,-0.59472c0.38122,-0.10892 0.80821,0.10892 1.18943,0c0.34363,-0.09818 0.55105,-0.48785 0.89207,-0.59472c0.35242,-0.11044 0.73833,-0.02127 1.10749,-0.0319c2.16582,0 4.49596,-0.24759 6.64574,0.00957c0.56351,0.06741 1.13483,0.14825 1.6674,0.34438c0.57118,0.21035 1.01479,0.7693 1.61874,0.84509c0.41051,0.05152 0.83903,-0.08703 1.24115,0.01029c0.1659,0.04015 2.37788,1.17941 2.4879,1.22423c0.46861,0.19089 0.99329,0.2379 1.44421,0.46747c0.46715,0.23782 0.84068,0.62728 1.27696,0.91787c0.37301,0.24845 0.73706,0.52181 1.14913,0.69807c0.40307,0.17242 0.89223,0.11689 1.27121,0.33726c2.38346,1.38592 2.5189,4.06421 1.7782,6.40525c-0.92279,3.26321 -2.73937,7.13037 -5.6193,9.14719c-0.25675,0.1798 -0.63023,0.12507 -0.89207,0.29736c-0.3831,0.25206 -0.58198,0.75445 -0.99841,0.94651c-0.35655,0.16444 -0.78401,0.04825 -1.17656,0.05659c-0.89187,0.01895 -1.78415,0 -2.67622,0c-2.46913,0 -4.85436,-0.13979 -7.31071,-0.30186c-0.51726,-0.03413 -1.0427,0.03952 -1.55458,-0.0423c-1.40155,-0.22405 -2.75385,-0.838 -4.1632,-1.09756c-1.4776,-0.27344 -3.10663,-0.41494 -4.50604,-0.9951c-0.45322,-0.1879 -0.83223,-0.52637 -1.28055,-0.72568c-1.28727,-0.5723 -3.40762,-1.14571 -4.13363,-2.56705c-0.4912,-0.96165 -0.65322,-3.1036 -0.36195,-4.14998c0.10629,-0.38187 0.46265,-0.64797 0.63841,-1.00326c0.46492,-0.93982 0.7185,-2.03596 1.18943,-2.97358c0.42712,-0.85038 1.02456,-1.60444 1.66942,-2.29991l-0.47596,0.47596c0,0 -0.52566,0.52566 -1.05132,0zM241.81402,183.58666c0.02135,-0.0216 0.04272,-0.04314 0.0641,-0.06464c0,0 0.52566,-0.52566 1.05132,0c0.52566,0.52566 0,1.05132 0,1.05132c-0.73135,0.72691 -1.47278,1.53912 -1.93936,2.47717c-0.46662,0.93815 -0.71626,2.03796 -1.18943,2.97358c-0.14377,0.28429 -0.46065,0.4754 -0.55102,0.78089c-0.09215,0.3115 0.02777,0.64919 0.0319,0.97401c0.00828,0.6522 -0.09941,1.38852 0.20087,2.01259c0.50706,1.05381 2.54929,1.54357 3.44507,1.94157c0.43858,0.19486 0.80884,0.52603 1.25091,0.71285c1.28548,0.54327 2.84144,0.65239 4.20099,0.90399c1.39359,0.25905 2.74182,0.87327 4.1257,1.09111c0.46706,0.07352 0.94634,-0.00326 1.41818,0.02707c2.42489,0.15586 4.7762,0.29872 7.21407,0.29872c0.89207,0 1.78447,-0.02409 2.67622,0c0.20333,0.0055 0.43016,0.15605 0.60759,0.05659c0.33394,-0.18719 0.46864,-0.62313 0.78573,-0.83764c0.25962,-0.17562 0.63369,-0.11992 0.89207,-0.29736c1.07487,-0.73813 1.94825,-2.01579 2.59982,-3.10652c1.04332,-1.7465 1.82351,-3.24071 2.37834,-5.20746c0.54433,-1.62969 0.66801,-3.69877 -1.08796,-4.67992c-0.3309,-0.18489 -0.75996,-0.10647 -1.10765,-0.25745c-0.49809,-0.2163 -0.947,-0.53343 -1.4007,-0.83182c-0.39018,-0.25662 -0.71132,-0.61994 -1.12783,-0.83117c-0.41504,-0.21049 -0.90147,-0.24113 -1.33248,-0.4166c-0.78621,-0.32009 -1.44165,-0.9683 -2.26982,-1.15463c-0.37,-0.08325 -0.76309,0.06941 -1.13771,0.01029c-1.27201,-0.20073 -1.87142,-1.0444 -3.19799,-1.17785c-2.11797,-0.21306 -4.36619,-0.00198 -6.49574,-0.00198c-0.22555,-0.01063 -0.46411,-0.10815 -0.67665,-0.0319c-0.33639,0.12069 -0.54844,0.49653 -0.89207,0.59472c-0.38122,0.10892 -0.80821,-0.10892 -1.18943,0c-0.34363,0.09818 -0.54822,0.49732 -0.89207,0.59472c-0.35941,0.1018 -0.76464,-0.1387 -1.12037,-0.02469c-0.23118,0.07409 -0.27954,0.4165 -0.48837,0.54028c-0.31866,0.18888 -0.69695,0.25143 -1.04782,0.37023c-0.68477,0.23187 -1.44044,0.157 -2.14579,0.31562c-0.68513,0.15407 -1.18408,0.68766 -1.65262,1.19433z" fill="#38ff00"/><path d="M265.44898,226.86718c0,0.74339 -0.74339,0.74339 -0.74339,0.74339l-1.12037,-0.21773c-0.54773,-0.55208 -0.98796,-1.59531 -1.64931,-1.97479c-0.52879,-0.30342 -1.20897,-0.26618 -1.73833,-0.5686c-0.80847,-0.46186 -1.35828,-1.28535 -2.12732,-1.81026c-0.51777,-0.35341 -1.2473,-0.27102 -1.78415,-0.59472c-0.24941,-0.15038 -0.43067,-0.38963 -0.63204,-0.60266l-0.16657,0.11897c0,0 -0.74339,0 -0.74339,-0.74339c0,-0.32184 0.13933,-0.50434 0.29736,-0.60784c0,-0.09475 0,-0.18949 0,-0.28424c0,-6.74011 0,-13.48021 0,-20.22032c0,0 0,-0.74339 0.74339,-0.74339c0.74339,0 0.74339,0.74339 0.74339,0.74339c0,6.74011 0,13.48021 0,20.22032c0,0.10009 0,0.20017 0,0.30026c0.05084,0.03736 0.07962,0.06615 0.07962,0.06615c0.71682,0.76066 1.38731,0.52182 2.24403,1.08272c0.75011,0.49111 1.2573,1.31309 2.03569,1.75803c0.55922,0.31966 1.28164,0.28281 1.82996,0.62083c0.82824,0.51057 1.2406,1.5162 1.91898,2.18821l0.06906,-0.21773c0,0 0.74339,0 0.74339,0.74339z" fill="#38ff00"/><path d="M250.87846,228.05661c0,-0.43755 0.25753,-0.61756 0.46944,-0.69163c0.06266,-0.23387 0.13255,-0.46374 0.27789,-0.65168c0.19653,-0.25414 0.64073,-0.2328 0.82742,-0.49426c0.10623,-0.14877 -0.07875,-0.35873 -0.08796,-0.5413c-0.01699,-0.33664 -0.0526,-0.67987 0.0096,-1.01115c0.25657,-1.36646 1.38631,-2.07367 1.81269,-3.38694c0,0 0.23508,-0.70524 0.94033,-0.47016c0.70524,0.23508 0.47016,0.94033 0.47016,0.94033c-0.36882,1.08353 -0.97656,1.63227 -1.55967,2.5346c-0.52085,0.80599 0.16281,1.82529 -0.27429,2.63617c-0.18705,0.347 -0.70475,0.39201 -0.95672,0.69517c-0.1492,0.1795 -0.12193,0.45061 -0.18289,0.67592l-1.0026,0.50831c0,0 -0.74339,0 -0.74339,-0.74339z" fill="#38ff00"/><path d="M249.09432,208.13365c0,-0.74339 0.74339,-0.74339 0.74339,-0.74339h0.29736c0.34333,0 1.94197,-0.02099 2.13492,0.08796c0.39251,0.22164 0.52976,0.73033 0.81884,1.0762c0.56793,0.67951 1.2177,0.98618 2.03904,1.25285c0,0 0.37684,0.12561 0.48777,0.46865c0.47397,-0.36008 1.02179,-0.6299 1.5187,-0.9612c0.24762,-0.16509 0.38358,-0.47053 0.63856,-0.62401c0.26854,-0.16165 0.6233,-0.13609 0.89207,-0.29736c0.2404,-0.14424 0.35299,-0.45271 0.59472,-0.59472c0.3194,-0.18764 0.69261,-0.26513 1.04782,-0.37023c0.19591,-0.05797 0.46396,0.0333 0.60149,-0.11777c0.23436,-0.25742 0.2589,-0.64632 0.38835,-0.96949l1.32674,-0.14032c0,0 0.74339,0 0.74339,0.74339c0,0.74339 -0.74339,0.74339 -0.74339,0.74339l-0.4574,-0.14032c-0.06879,0.27155 -0.00122,0.6239 -0.20637,0.81466c-0.49875,0.46377 -1.33897,0.34446 -1.91898,0.70142c-0.23876,0.14694 -0.35432,0.45048 -0.59472,0.59472c-0.26878,0.16126 -0.62305,0.1365 -0.89207,0.29736c-0.22584,0.13504 -0.33193,0.41946 -0.55087,0.56542c-0.56183,0.37453 -1.22209,0.62826 -1.69316,1.11202c0,0 -0.52566,0.52566 -1.05132,0c-0.1312,-0.1312 -0.19691,-0.26241 -0.22164,-0.38544c-0.20477,0.02867 -0.37985,-0.02969 -0.37985,-0.02969c-1.05274,-0.35834 -2.02039,-0.80206 -2.71867,-1.72073c-0.16119,-0.21205 -0.15032,-0.55818 -0.37059,-0.70794c-0.15117,-0.10278 -0.35884,0.07676 -0.5413,0.08796c-0.2968,0.01821 -0.59472,0 -0.89207,0h-0.29736c0,0 -0.74339,0 -0.74339,-0.74339z" fill="#38ff00"/></g></g></svg>